<?xml version="1.0" standalone="no"?><!DOCTYPE svg PUBLIC "-//W3C//DTD SVG 1.1//EN" "http://www.w3.org/Graphics/SVG/1.1/DTD/svg11.dtd"><svg t="1751942932344" class="icon" viewBox="0 0 1024 1024" version="1.1" xmlns="http://www.w3.org/2000/svg" p-id="25940" xmlns:xlink="http://www.w3.org/1999/xlink" width="200" height="200"><path d="M992.64746667 511.73333333c-1.1264 131.81226667-46.82453333 246.128-139.92853334 339.1872-98.71573333 98.66666667-219.87946667 145.68106667-359.45173333 140.24-128.80106667-5.0208-239.01333333-55.17653333-327.84106667-148.51413333-89.18826667-93.71733333-133.65546667-206.9504-131.88906666-336.15893333 1.88053333-137.552 54.14826667-254.7232 155.51573333-348.06613334C282.89066667 72.01386667 395.26506667 29.93493333 522.512 32.528c133.58506667 2.72426667 247.5712 53.71733333 339.91466667 150.55573333 78.1664 81.97333333 130.992 198.6944 130.2208 328.64853334zM822.22506667 815.4208C935.17333333 704.76586667 989.49013333 513.03466667 908.17066667 332.93866667c-41.28426667-91.43466667-107.5584-160.71786667-196.69546667-206.70293334-84.07573333-43.37386667-173.65546667-57.57226667-267.2416-42.58133333-84.40533333 13.52106667-159.06346667 48.90773333-221.9264 106.656-91.104 83.69066667-139.0016 188.20053333-142.92586667 312.06186667-2.06293333 65.1328 10.9824 127.68853333 37.74826667 187.0816 21.22453333 47.0976 49.84533333 89.34613333 86.61333333 126.43626666 4.27306667-10.17813333 8.18773333-19.81013333 12.3456-29.33653333 12.19306667-27.93386667 26.32533333-54.85653333 42.1952-80.88533333 17.02933333-27.9328 36.4352-54.112 59.06453334-77.68853334 14.99946667-15.62453333 31.6832-29.51146667 50.48426666-40.71786666-90.35413333-89.61493333-80.44266667-217.7728-9.14346666-293.4112 81.9008-86.8864 212.02026667-85.94666667 292.97813333-15.15733334 45.68426667 39.94346667 70.22933333 91.136 71.6608 151.63093334 1.45493333 61.44106667-20.86933333 114.24533333-65.216 156.37226666 11.28106667 8.63786667 23.3216 16.20906667 33.31413333 25.89333334 15.4688 14.98986667 30.5664 30.6048 43.97333334 47.4272 21.67786667 27.19786667 40 56.77546667 55.2384 88.10666666 10.84373333 22.29653333 21.09226667 44.8832 31.58613333 67.296z m-582.67413334 33.63626667c1.95413333 1.24586667 3.12533333 1.824 4.0992 2.63786666 20.752 17.296 43.54133333 31.5744 67.29173334 44.224 24.0512 12.80853333 49.248 22.9824 75.34933333 31.04426667 34.304 10.59626667 69.40693333 16.88 105.11786667 18.5088 21.2992 0.97173333 42.84586667-0.144 64.09066666-2.25066667 20.9344-2.07573333 41.824-5.6928 62.37866667-10.24 30.83733333-6.8192 60.22933333-18.3104 88.44373333-32.37653333 26.76586667-13.34186667 51.88586667-29.51466667 75.53066667-47.89973333 2.704-2.1024 2.80426667-4.24533333 1.4464-7.3952-5.5264-12.82346667-10.736-25.78346667-16.0288-38.70613334a487.88693333 487.88693333 0 0 0-43.79413333-83.12106666c-11.5776-17.6192-24.62506667-34.3552-37.9776-50.69866667-18.24746667-22.336-39.71946667-41.08373333-66.0928-53.5296-1.69813333-0.80106667-4.4448-1.024-6.0192-0.20266667-25.11466667 13.08373333-51.56053333 21.2032-79.8816 23.89866667-18.79253333 1.7888-37.4368 1.35893333-55.8688-1.68-22.68053333-3.73973333-44.38186667-11.00053333-64.58453334-22.32533333-1.46986667-0.82453333-3.99146667-0.86506667-5.5872-0.208-16.8448 6.93333333-31.264 17.65226667-44.5376 29.85493333-22.98133333 21.12853333-42.81813333 44.99733333-59.02293333 71.67253333-11.52 18.9632-23.01013333 38.04906667-32.8384 57.90933334-11.44533333 23.12746667-21.06666667 47.1616-31.51466667 70.8832z m273.024-250.9152c92.3296 0.05333333 165.09866667-72.99733333 164.9728-162.4064-0.13013333-91.01013333-72.22186667-157.54666667-154.08426666-162.3072-48.6432-2.82773333-90.99413333 12.84693333-125.82613334 46.71893333-30.7744 29.9264-47.53813333 67.05066667-48.8416 110.07893333C345.93066667 524.90666667 423.71733333 598.34666667 512.576 598.14293333z" p-id="25941" fill="#e6e6e6"></path></svg>